# xmcd CD database file
#
# Track frame offsets:
#	150
#	13610
#	26367
#	38957
#	49965
#	62717
#	74085
#	86237
#	99722
#	113295
#	124087
#	136920
#	150667
#	163550
#	175602
#	189502
#	202272
#	213960
#	223745
#	235797
#
# Disc length: 3298 seconds
#
# Revision: 4
# Processed by: cddbd v1.5.1PL2 Copyright (c) Steve Scherf et al.
# Submitted via: CDex 1.51
#
DISCID=1c0ce014
DTITLE=Various Artist - The Giants of Blues
DYEAR=1988
DGENRE=Blues
TTITLE0=John Lee Hooker - Hobo Blues
TTITLE1=Muddy Waters - (I'm your) Hoochie-Coochie Man
TTITLE2=B.B. King - Ten long years
TTITLE3=Jimmy Reed - Baby, what you want me to do
TTITLE4=Muddy Waters - I just want to make love to you
TTITLE5=John Lee Hooker - Boom Boom Boom
TTITLE6=Jimmy Reed - Honest I do
TTITLE7=B.B. King - Sneakin' Around
TTITLE8=Muddy Waters - I'm Ready
TTITLE9=John Lee Hooker - No Shoes
TTITLE10=Jimmy Reed - You got me dizzy
TTITLE11=B.B. King - You upset me baby
TTITLE12=Muddy Waters - Manish Boy
TTITLE13=John Lee Hooker - I'm a stranger
TTITLE14=B.B. King - You know I love you
TTITLE15=Muddy Waters - Louisiana Blues
TTITLE16=Jimmy Reed - Hush Hush
TTITLE17=John Lee Hooker - I wanna walk
TTITLE18=Muddy Waters - Long distance call
TTITLE19=B.B. King - Please accept my love
EXTD=YEAR: 1988
EXTT0=
EXTT1=
EXTT2=
EXTT3=
EXTT4=
EXTT5=
EXTT6=
EXTT7=
EXTT8=
EXTT9=
EXTT10=
EXTT11=
EXTT12=
EXTT13=
EXTT14=
EXTT15=
EXTT16=
EXTT17=
EXTT18=
EXTT19=
PLAYORDER=
